<?xml version="1.0" standalone="no"?>
<!DOCTYPE svg PUBLIC "-//W3C//DTD SVG 20010904//EN"
 "http://www.w3.org/TR/2001/REC-SVG-20010904/DTD/svg10.dtd">
<svg version="1.0" xmlns="http://www.w3.org/2000/svg"
 width="861.000000pt" height="873.000000pt" viewBox="0 0 861.000000 873.000000"
 preserveAspectRatio="xMidYMid meet">

<g transform="translate(0.000000,873.000000) scale(0.100000,-0.100000)"
fill="#000000" stroke="none">
<path d="M4000 8704 c-19 -2 -80 -9 -135 -14 -949 -99 -1865 -536 -2552 -1218
-626 -621 -1039 -1392 -1213 -2262 -63 -315 -75 -450 -75 -845 0 -381 10 -501
66 -800 121 -655 402 -1292 806 -1831 584 -780 1439 -1351 2380 -1588 154 -39
336 -74 516 -98 222 -31 774 -33 992 -5 537 70 987 208 1450 446 1191 610
2038 1752 2284 3076 56 300 66 419 65 800 0 316 -2 380 -22 525 -73 539 -207
982 -438 1441 -602 1202 -1730 2059 -3039 2308 -267 51 -396 63 -730 66 -176
2 -336 1 -355 -1z m3448 -2092 c144 -46 284 -196 341 -368 93 -279 16 -629
-184 -842 -87 -93 -191 -158 -328 -207 -79 -28 -120 -37 -222 -44 -146 -11
-190 -30 -288 -120 -64 -60 -71 -59 -81 13 -8 48 -52 195 -95 316 -38 105 -38
122 -3 161 22 24 38 32 76 36 47 6 49 5 44 -18 -3 -13 -9 -40 -14 -58 l-7 -35
37 37 c62 62 144 97 351 147 152 37 218 60 305 106 265 139 330 456 145 712
-57 80 -187 162 -256 162 -11 0 -17 5 -14 10 10 17 129 11 193 -8z m-5421
-242 c-262 -133 -366 -500 -224 -789 44 -91 151 -197 239 -239 132 -63 199
-73 548 -82 367 -9 418 -18 493 -88 40 -38 35 -7 -8 59 -40 58 -38 63 27 74
54 9 91 -2 124 -36 35 -36 36 -69 15 -309 -8 -95 -10 -196 -6 -262 3 -60 4
-108 2 -108 -3 0 -31 15 -64 33 -115 65 -224 98 -294 90 -19 -3 -81 -14 -139
-25 -239 -47 -543 10 -736 138 -136 90 -268 242 -354 407 -184 353 -153 759
77 1007 86 93 216 157 323 159 34 1 34 0 -23 -29z m4695 -2347 c36 -60 58
-179 58 -307 0 -137 -15 -209 -56 -267 -83 -121 -260 -219 -447 -249 -94 -16
-267 -8 -352 15 -84 23 -155 55 -155 70 0 10 43 42 267 197 52 36 55 36 126
31 84 -6 135 13 181 67 22 27 26 41 26 99 l0 68 153 158 c95 97 159 156 168
153 7 -2 22 -18 31 -35z m-3115 -244 c48 -23 168 -77 267 -120 98 -43 187 -85
197 -95 10 -9 25 -38 34 -64 19 -57 45 -86 99 -111 63 -28 139 -25 212 10 l62
29 179 -58 c98 -32 207 -66 241 -75 34 -10 62 -21 62 -24 0 -11 -99 -67 -214
-122 -303 -142 -602 -142 -821 1 -153 100 -310 320 -379 532 -27 83 -40 138
-33 138 3 0 45 -19 94 -41z m2400 -1635 c101 -77 164 -191 179 -325 21 -185
-133 -404 -339 -485 -243 -96 -524 -22 -657 171 -63 91 -89 258 -59 370 21 76
61 155 79 155 33 0 44 -52 32 -153 -13 -109 -5 -162 37 -244 89 -178 312 -259
501 -182 112 46 186 113 236 215 26 53 29 69 29 154 0 85 -4 102 -32 161 -17
37 -36 69 -42 73 -11 7 -16 116 -4 116 3 0 21 -12 40 -26z"/>
</g>
</svg>
