<?xml version="1.0" encoding="UTF-8"?>
<!DOCTYPE svg PUBLIC "-//W3C//DTD SVG 1.1//EN" "http://www.w3.org/Graphics/SVG/1.1/DTD/svg11.dtd">
<svg xmlns="http://www.w3.org/2000/svg" version="1.1" width="1004px" height="747px" style="shape-rendering:geometricPrecision; text-rendering:geometricPrecision; image-rendering:optimizeQuality; fill-rule:evenodd; clip-rule:evenodd" xmlns:xlink="http://www.w3.org/1999/xlink">
<g><path style="opacity:1" fill="#0b0b0b" d="M 78.5,746.5 C 74.8333,746.5 71.1667,746.5 67.5,746.5C 51.3802,734.311 45.8802,718.311 51,698.5C 55.8639,689.438 60.1972,680.104 64,670.5C 67.2439,641.546 70.2439,612.546 73,583.5C 77.5863,568.206 82.253,552.873 87,537.5C 92.1354,513.355 95.9688,489.022 98.5,464.5C 97.5932,451.012 96.9266,437.512 96.5,424C 96.2564,415.389 97.0897,406.889 99,398.5C 101.605,389.352 104.605,380.352 108,371.5C 115.527,357.779 122.527,343.779 129,329.5C 133.27,324.504 136.104,318.838 137.5,312.5C 124.74,308.727 111.74,306.06 98.5,304.5C 79.7617,305.346 62.4284,310.513 46.5,320C 31.6366,331.65 28.8033,345.816 38,362.5C 45.8675,373.852 56.0341,382.519 68.5,388.5C 85.6192,400.246 87.6192,414.079 74.5,430C 68.1073,434.298 61.1073,437.132 53.5,438.5C 53.1667,437.167 52.8333,435.833 52.5,434.5C 53.3311,428.518 53.9978,422.518 54.5,416.5C 54.4184,409.23 51.4184,403.396 45.5,399C 35.2567,392.294 25.09,385.461 15,378.5C 5.52743,366.824 1.02743,353.324 1.5,338C 1.62857,315.764 10.6286,298.264 28.5,285.5C 47.5132,272.66 67.8466,262.493 89.5,255C 117.606,251.176 144.273,255.509 169.5,268C 174.287,268.879 178.953,268.545 183.5,267C 191.781,261.718 199.781,256.051 207.5,250C 213.167,243 218.833,236 224.5,229C 233.189,225.66 241.856,222.327 250.5,219C 272.446,207.359 294.446,195.692 316.5,184C 331.428,170.617 346.261,157.117 361,143.5C 368.854,132.659 377.021,122.159 385.5,112C 397.697,101.962 409.697,91.7954 421.5,81.5C 445.153,68.9922 468.153,55.4922 490.5,41C 513.616,31.3499 536.949,31.0165 560.5,40C 581.651,50.7565 602.651,61.5898 623.5,72.5C 650.949,92.7969 674.116,117.13 693,145.5C 696.909,152.885 700.242,160.551 703,168.5C 705.532,179.428 708.865,190.094 713,200.5C 716.017,209.392 721.85,215.559 730.5,219C 738.035,221.734 745.702,224.067 753.5,226C 782.674,240.833 813.007,252.5 844.5,261C 855.794,263.464 867.127,263.798 878.5,262C 888.369,259.266 898.036,255.932 907.5,252C 924.486,248.804 941.486,248.804 958.5,252C 965.112,254.09 971.445,256.757 977.5,260C 953.073,259.943 930.406,265.943 909.5,278C 896.971,287.096 883.971,295.429 870.5,303C 858.12,307.552 845.453,308.552 832.5,306C 819.567,301.696 806.567,297.696 793.5,294C 785.186,292.289 776.853,292.122 768.5,293.5C 768.33,294.822 768.663,295.989 769.5,297C 784.716,298.773 799.383,302.44 813.5,308C 824.576,310.353 835.576,312.853 846.5,315.5C 834.754,325.375 821.754,333.208 807.5,339C 802.096,339.772 796.762,339.439 791.5,338C 782.657,333.15 773.823,328.317 765,323.5C 756.81,329.025 750.81,336.358 747,345.5C 746,355.167 745,364.833 744,374.5C 738.424,383.079 731.757,390.745 724,397.5C 723.219,398.729 722.719,400.062 722.5,401.5C 725.302,408.14 729.135,414.14 734,419.5C 739.077,426.086 739.577,432.919 735.5,440C 731.833,443.658 729.166,447.992 727.5,453C 726.276,461.397 724.943,469.731 723.5,478C 717.552,481.199 711.552,484.199 705.5,487C 701.02,492.052 696.02,496.385 690.5,500C 680.164,502.792 669.83,503.459 659.5,502C 657.5,501 655.5,500 653.5,499C 648.905,491.924 644.571,484.757 640.5,477.5C 638.926,476.369 637.259,476.202 635.5,477C 622.632,491.878 610.465,507.378 599,523.5C 592.322,535.523 586.155,547.857 580.5,560.5C 572.315,570.213 562.315,572.713 550.5,568C 543.875,559.472 536.542,551.472 528.5,544C 513.683,536.869 498.016,533.369 481.5,533.5C 484.81,510.35 496.81,493.516 517.5,483C 524.837,479.577 531.837,480.244 538.5,485C 545.912,491.081 551.412,498.581 555,507.5C 555.561,508.022 556.228,508.355 557,508.5C 567.113,497.612 574.113,484.945 578,470.5C 581.952,458.036 584.618,445.37 586,432.5C 580.458,429.977 575.291,426.811 570.5,423C 566.031,417.191 561.531,411.357 557,405.5C 555.89,403.963 554.39,403.297 552.5,403.5C 552.981,407.825 554.648,411.658 557.5,415C 544.038,422.483 530.704,430.15 517.5,438C 510.236,441.76 502.569,443.427 494.5,443C 496.797,439.113 497.631,434.946 497,430.5C 493.757,431.408 491.423,433.408 490,436.5C 487.181,441.398 484.514,446.398 482,451.5C 477.333,464.167 472.667,476.833 468,489.5C 465.709,502.787 463.709,516.121 462,529.5C 457.131,544.439 452.465,559.439 448,574.5C 445.726,577.615 443.226,580.615 440.5,583.5C 427.939,589.545 417.439,587.212 409,576.5C 401.604,563.103 391.438,552.27 378.5,544C 377.167,543.333 375.833,543.333 374.5,544C 361.622,569.214 350.122,595.047 340,621.5C 336.711,627.72 332.878,633.554 328.5,639C 321.533,644.325 313.866,645.658 305.5,643C 290.835,633.775 274.835,630.108 257.5,632C 255.379,646.125 253.212,660.291 251,674.5C 248.955,684.68 246.289,694.68 243,704.5C 239.253,709.591 234.42,713.091 228.5,715C 217.12,718.46 205.787,722.126 194.5,726C 185.55,727.572 176.55,728.238 167.5,728C 171.427,706.225 178.593,685.392 189,665.5C 199.022,665.14 209.022,665.14 219,665.5C 220.818,656.745 221.985,647.911 222.5,639C 221.595,628.329 220.595,617.663 219.5,607C 219.198,598.739 221.364,591.239 226,584.5C 227.935,582.898 230.101,581.731 232.5,581C 241.186,579.131 249.853,579.131 258.5,581C 263.993,583.752 269.66,585.918 275.5,587.5C 275.622,582.768 275.122,578.102 274,573.5C 270.982,563.95 268.482,554.283 266.5,544.5C 273.016,541.772 279.683,539.439 286.5,537.5C 286.5,536.5 286.5,535.5 286.5,534.5C 275.039,535.089 263.706,534.256 252.5,532C 250.283,530.725 247.949,529.725 245.5,529C 235.885,520.714 225.719,513.214 215,506.5C 212.755,507.137 210.588,507.97 208.5,509C 195.508,520.327 181.175,529.661 165.5,537C 164,538.5 162.5,540 161,541.5C 153.274,554.608 145.274,567.608 137,580.5C 128.19,595.93 122.356,612.43 119.5,630C 121.254,639.848 121.421,649.681 120,659.5C 118.772,663.059 117.106,666.392 115,669.5C 108.14,676.075 102.64,683.575 98.5,692C 101.734,698.304 104.568,704.804 107,711.5C 107.696,715.905 107.363,720.239 106,724.5C 103.306,728.54 100.139,732.207 96.5,735.5C 90.3344,739.233 84.3344,742.899 78.5,746.5 Z M 486.5,166.5 C 487.833,166.5 489.167,166.5 490.5,166.5C 494.467,175.098 498.967,183.432 504,191.5C 513.972,202.904 526.472,209.737 541.5,212C 558.17,212.143 574.836,212.143 591.5,212C 599.372,212.174 607.039,213.508 614.5,216C 616.317,217.8 617.484,219.966 618,222.5C 618.499,227.489 618.666,232.489 618.5,237.5C 606.154,237.082 593.821,236.415 581.5,235.5C 551.457,240.865 524.457,234.365 500.5,216C 486.604,203.811 481.604,188.644 485.5,170.5C 486.434,169.432 486.768,168.099 486.5,166.5 Z M 767.5,241.5 C 772.206,242.343 776.872,243.51 781.5,245C 804.567,255.436 828.567,263.103 853.5,268C 863.203,268.744 872.87,268.411 882.5,267C 892.709,262.931 903.042,259.264 913.5,256C 924.522,255.287 935.522,255.453 946.5,256.5C 946.5,257.5 946.5,258.5 946.5,259.5C 920.455,264.894 896.789,275.394 875.5,291C 871.729,293.219 867.729,294.885 863.5,296C 854.787,296.798 846.12,296.464 837.5,295C 813.935,288.026 790.268,281.526 766.5,275.5C 768.046,264.178 768.379,252.845 767.5,241.5 Z M 630.5,319.5 C 637.266,319.409 639.266,322.576 636.5,329C 634.559,329.743 632.726,329.576 631,328.5C 628.274,325.406 628.107,322.406 630.5,319.5 Z M 417.5,489.5 C 418.5,489.5 419.5,489.5 420.5,489.5C 419.543,495.869 417.876,502.036 415.5,508C 413.888,508.72 412.388,508.554 411,507.5C 408.646,503.797 407.146,499.797 406.5,495.5C 410.346,493.745 414.013,491.745 417.5,489.5 Z"/></g>
<g><path style="opacity:1" fill="#00b500" d="M 490.5,166.5 C 488.845,162.777 487.511,162.777 486.5,166.5C 486.768,168.099 486.434,169.432 485.5,170.5C 480.912,179.428 480.245,188.761 483.5,198.5C 484.454,213.32 491.454,224.486 504.5,232C 515.157,237.433 525.991,242.266 537,246.5C 537.205,254.532 535.372,262.365 531.5,270C 531.833,270.333 532.167,270.667 532.5,271C 530.813,272.913 530.313,275.08 531,277.5C 532.628,276.903 534.295,277.237 536,278.5C 549.777,279.542 562.944,277.375 575.5,272C 581.189,271.343 586.523,271.676 591.5,273C 595.019,279.879 598.352,286.879 601.5,294C 601.167,294.333 600.833,294.667 600.5,295C 602.818,298.96 605.318,302.794 608,306.5C 610.713,304.762 612.713,302.428 614,299.5C 619.77,302.431 622.937,307.098 623.5,313.5C 623.638,318.224 623.305,322.724 622.5,327C 625.295,332.128 629.128,336.295 634,339.5C 636.989,339.554 639.822,340.721 642.5,343C 640.167,344 638.5,345.667 637.5,348C 635.726,348.97 633.893,349.804 632,350.5C 629,348.833 626,347.167 623,345.5C 621.623,346.036 621.623,347.036 623,348.5C 625.371,351.206 628.037,353.539 631,355.5C 639.29,354.796 647.79,354.296 656.5,354C 654.93,356.862 653.263,359.695 651.5,362.5C 658.173,363.329 664.507,364.329 670.5,365.5C 669.624,368.799 669.457,372.132 670,375.5C 672.641,377.804 675.308,380.138 678,382.5C 680.963,377.278 684.463,372.445 688.5,368C 684.021,366.729 679.688,365.062 675.5,363C 671.804,359.964 668.804,356.297 666.5,352C 670.901,348.883 675.734,346.716 681,345.5C 685.225,345.1 688.725,346.766 691.5,350.5C 692.262,351.628 692.929,352.795 693.5,354C 693.281,356.771 693.281,359.605 693.5,362.5C 691.936,370.43 690.936,378.264 690.5,386C 691.253,387.487 692.086,387.654 693,386.5C 695.368,380.25 697.368,374.25 699,368.5C 700.016,367.366 700.683,367.699 701,369.5C 702.997,380.717 702.831,391.883 700.5,403C 700.314,404.867 700.647,406.867 701.5,409C 699.791,412.873 698.958,416.706 699,420.5C 696.81,424.076 694.81,427.743 693,431.5C 683.286,424.089 675.952,414.756 671,403.5C 668.181,408.468 665.347,413.468 662.5,418.5C 666.283,421.159 670.283,423.326 674.5,425C 676.992,427.812 678.492,430.978 679,434.5C 673.103,431.331 666.603,428.665 659.5,426.5C 657.742,427.128 656.242,428.128 655,429.5C 654.386,433.075 653.553,436.242 652.5,439C 654.448,439.983 656.282,441.15 658,442.5C 662.899,442.904 667.732,444.404 672.5,447C 671.833,447.667 671.167,448.333 670.5,449C 666.33,449.325 662.33,449.491 658.5,449.5C 655.891,448.77 653.224,448.27 650.5,448C 649.03,444.37 647.197,440.536 645,436.5C 644.196,440.204 644.696,443.704 646.5,447C 646.167,447.333 645.833,447.667 645.5,448C 650.584,456.67 655.25,465.503 659.5,474.5C 661.726,475.96 663.893,476.96 666,477.5C 666.414,477.043 666.914,476.709 667.5,476.5C 669.115,477.154 670.782,477.654 672.5,478C 672.167,478.333 671.833,478.667 671.5,479C 664.394,480.418 657.394,480.918 650.5,480.5C 642.9,478.094 638.567,473.261 637.5,466C 634.729,459.373 635.062,452.707 638.5,446C 638.167,445.667 637.833,445.333 637.5,445C 639.336,439.485 641.336,433.985 643.5,428.5C 641.488,426.894 639.155,425.727 636.5,425C 633.987,421.64 632.653,417.807 632.5,413.5C 633.069,408.644 633.735,403.811 634.5,399C 631.957,394.089 628.791,389.589 625,385.5C 622.777,379.566 620.11,373.899 617,368.5C 616.833,369 616.667,369.5 616.5,370C 620.353,381.087 623.853,391.921 627,402.5C 626.666,412.845 629,422.511 634,431.5C 634.767,435.594 634.434,439.594 633,443.5C 624.644,436.325 617.811,427.825 612.5,418C 611.804,413.653 611.804,409.153 612.5,404.5C 615.4,397.867 616.566,391.2 616,384.5C 615.527,382.221 614.527,380.221 613,378.5C 613.124,383.136 613.29,387.802 613.5,392.5C 596.403,387.07 585.403,375.736 580.5,358.5C 580.401,342.931 580.568,327.264 581,311.5C 581.423,303.563 583.923,296.063 588.5,289C 588.167,288.667 587.833,288.333 587.5,288C 589.036,286.401 589.536,284.567 589,282.5C 582.997,280.646 576.997,279.646 571,279.5C 554.418,288.976 537.251,291.142 519.5,286C 511.079,281.901 502.913,277.401 495,272.5C 494.885,274.107 495.385,275.607 496.5,277C 505.403,287.66 512.07,299.66 516.5,313C 518.628,316.089 520.628,319.256 522.5,322.5C 531.988,332.156 541.322,341.989 550.5,352C 533.04,352.702 518.207,346.535 506,333.5C 501.952,329.12 498.285,324.454 495,319.5C 490.5,316.333 486.667,312.5 483.5,308C 479.133,304.589 474.633,301.423 470,298.5C 469.5,298.667 469,298.833 468.5,299C 472.22,304.274 475.553,309.774 478.5,315.5C 473.752,324.082 466.918,330.415 458,334.5C 455.323,332.155 452.99,329.488 451,326.5C 449.312,327.325 449.145,328.325 450.5,329.5C 449.155,338.481 447.322,347.481 445,356.5C 443,359.833 441,363.167 439,366.5C 427.769,357.19 415.935,349.356 403.5,343C 398.186,341.264 393.519,341.93 389.5,345C 393.141,346.619 396.807,348.286 400.5,350C 401.833,351.667 403.167,353.333 404.5,355C 401.498,357.503 398.165,359.503 394.5,361C 394.833,361.333 395.167,361.667 395.5,362C 404.559,363.067 413.559,363.733 422.5,364C 440.032,368.639 457.699,372.639 475.5,376C 470.523,377.822 465.857,380.155 461.5,383C 454.424,388.384 451.09,395.551 451.5,404.5C 452.367,412.351 453.701,419.517 455.5,426C 452.666,426.045 450.166,426.879 448,428.5C 445.663,434.815 443.829,440.982 442.5,447C 438.505,457.916 437.838,468.749 440.5,479.5C 440.4,486.111 440.234,493.111 440,500.5C 433.942,509.21 428.775,518.376 424.5,528C 424.84,531 424.173,534 422.5,537C 422.848,544.76 423.181,552.427 423.5,560C 421.231,560.758 419.064,560.591 417,559.5C 415.95,555.696 415.116,551.863 414.5,548C 414.616,546.732 414.949,545.398 415.5,544C 411.524,532.192 404.524,522.692 394.5,515.5C 394.167,516 393.833,516.5 393.5,517C 394.817,520.585 395.817,523.918 396.5,527C 392.676,525.609 388.676,524.442 384.5,523.5C 384.5,525.167 384.5,526.833 384.5,528.5C 378.674,527.391 373.174,525.391 368,522.5C 367.255,525.545 365.922,528.211 364,530.5C 356.921,527.084 350.088,523.25 343.5,519C 346.762,514.398 350.428,510.065 354.5,506C 364.518,498.552 374.352,490.719 384,482.5C 393.94,489.119 400.94,498.119 405,509.5C 408.333,514.167 411.667,518.833 415,523.5C 416.758,522.531 417.258,521.364 416.5,520C 417.13,518.108 418.13,516.441 419.5,515C 421.603,506.025 424.603,497.025 428.5,488C 428.167,487.667 427.833,487.333 427.5,487C 428.394,483.586 429.061,480.086 429.5,476.5C 428.658,474.235 428.658,472.068 429.5,470C 426.057,460.895 423.39,451.561 421.5,442C 422.66,436.408 422.66,430.741 421.5,425C 422.423,420.476 423.59,415.976 425,411.5C 427.797,407.701 430.964,404.201 434.5,401C 417.325,399.869 400.159,399.035 383,398.5C 372.275,398.537 361.775,396.37 351.5,392C 344.618,388.307 337.784,384.474 331,380.5C 330.833,381 330.667,381.5 330.5,382C 335.114,388.148 340.78,393.148 347.5,397C 361.678,403.287 376.011,407.12 390.5,408.5C 409.831,408.859 419.164,419.192 418.5,439.5C 412.936,439.976 407.436,440.643 402,441.5C 395.022,440.79 387.856,440.79 380.5,441.5C 363.864,439.451 347.864,433.951 332.5,425C 325.522,421.357 320.689,415.857 318,408.5C 317.551,392.197 317.384,375.531 317.5,358.5C 321.601,339.402 328.434,321.402 338,304.5C 347.565,289.857 357.732,275.69 368.5,262C 369.923,259.244 371.256,256.411 372.5,253.5C 372.167,253.167 371.833,252.833 371.5,252.5C 357.318,261.517 345.985,273.351 337.5,288C 336.707,292.15 335.04,296.317 332.5,300.5C 325.509,311.676 318.675,323.009 312,334.5C 304.125,345.552 294.291,354.218 282.5,360.5C 278.636,360.466 274.803,360.466 271,360.5C 267.58,359.818 264.246,358.818 261,357.5C 257.953,357.858 255.786,356.358 254.5,353C 254.833,352.667 255.167,352.333 255.5,352C 253.606,350.921 253.273,349.587 254.5,348C 253.065,345.341 252.065,342.508 251.5,339.5C 249.599,338.769 247.599,338.769 245.5,339.5C 245.719,338.325 245.386,337.325 244.5,336.5C 235.822,333.662 227.488,329.995 219.5,325.5C 215.588,336.803 212.421,348.47 210,360.5C 205.729,351.315 202.729,341.315 201,330.5C 198.959,334.084 196.792,337.584 194.5,341C 194.833,341.333 195.167,341.667 195.5,342C 193.402,347.909 191.236,354.075 189,360.5C 188.466,356.695 187.466,353.029 186,349.5C 184.907,351.349 183.574,353.016 182,354.5C 174.122,372.465 167.622,390.965 162.5,410C 162.5,412 162.5,414 162.5,416C 158.796,425.949 155.13,435.616 151.5,445C 152.333,445.833 153.167,446.667 154,447.5C 164.857,444.113 174.024,437.779 181.5,428.5C 186.284,417.394 190.451,406.728 194,396.5C 198.921,386.981 204.588,377.981 211,369.5C 217.49,378.219 221.323,387.385 222.5,397C 224.135,400.525 225.468,404.192 226.5,408C 225.179,410.654 223.179,412.654 220.5,414C 202.055,423.724 184.388,434.724 167.5,447C 151,462.167 135.167,478 120,494.5C 119.5,495.5 119,496.5 118.5,497.5C 121.787,507.435 125.621,517.435 130,527.5C 130.828,531.466 131.328,535.466 131.5,539.5C 130.325,539.719 129.325,539.386 128.5,538.5C 126.202,529.972 122.702,521.972 118,514.5C 117.667,514.833 117.333,515.167 117,515.5C 109.587,537.915 101.421,560.748 92.5,584C 92.7614,596.817 93.2614,609.65 94,622.5C 92.1318,628.569 89.4651,634.235 86,639.5C 84.303,647.772 82.9697,656.105 82,664.5C 78.7812,672.69 76.2812,680.523 74.5,688C 74.7021,696.539 76.0354,705.039 78.5,713.5C 74.259,713.815 70.4256,712.815 67,710.5C 63.6732,710.275 60.5065,708.941 57.5,706.5C 57.1667,705.667 56.8333,704.833 56.5,704C 62.0618,691.704 67.2285,679.204 72,666.5C 72.4361,664.153 72.9361,661.819 73.5,659.5C 72.4018,652.197 72.2351,644.864 73,637.5C 73.6419,635.238 74.4752,633.071 75.5,631C 75.1075,626.503 75.7741,622.003 77.5,617.5C 77.0133,616.554 76.6799,615.554 76.5,614.5C 77.333,605.176 78.1663,595.842 79,586.5C 82.3072,572.922 86.4738,560.089 91.5,548C 91.1667,547.667 90.8333,547.333 90.5,547C 91.7095,543.28 93.0428,539.613 94.5,536C 94.1667,535.667 93.8333,535.333 93.5,535C 94.1276,532.2 95.1276,529.533 96.5,527C 95.9782,523.262 96.6449,519.595 98.5,516C 98.0426,515.586 97.7093,515.086 97.5,514.5C 105.414,486.816 107.08,457.982 102.5,428C 103.328,424.492 103.328,421.158 102.5,418C 103.077,414.944 103.743,411.944 104.5,409C 104.429,400.132 106.762,391.465 111.5,383C 120.478,358.22 132.645,334.72 148,312.5C 156.748,303.912 165.915,295.912 175.5,288.5C 175.291,287.914 174.957,287.414 174.5,287C 172.82,286.966 171.32,286.799 170,286.5C 163.881,288.662 157.548,289.996 151,290.5C 147,290.5 143.333,290.5 140,290.5C 126.263,286.474 112.596,283.474 99,281.5C 98.5,282 98,282.5 97.5,283C 112.552,285.012 126.885,289.346 140.5,296C 129.865,296.279 119.365,294.446 109,290.5C 90.7047,288.906 73.3713,293.239 57,303.5C 56.6667,303.167 56.3333,302.833 56,302.5C 47.2831,306.868 38.7831,311.701 30.5,317C 22.3699,324.382 20.3699,333.215 24.5,343.5C 24.2907,344.086 23.9574,344.586 23.5,345C 25.2687,347.269 25.9353,349.602 25.5,352C 28.1914,357.711 31.3581,363.211 35,368.5C 40.6835,374.018 46.5168,379.351 52.5,384.5C 54.3742,387.333 55.3742,390.167 55.5,393C 54.8921,393.87 54.0588,394.37 53,394.5C 14.3471,381.537 0.680441,355.204 12,315.5C 16.9013,304.465 24.4013,295.631 34.5,289C 47.0532,280.241 60.0532,272.907 73.5,267C 79.3152,264.425 85.3152,262.425 91.5,261C 108.601,259.658 125.601,260.658 142.5,264C 152.564,267.706 162.897,271.706 173.5,276C 177.402,276.738 181.068,276.072 184.5,274C 193.932,266.552 203.599,259.552 213.5,253C 218.14,246.064 223.307,239.564 229,233.5C 238.033,230.377 247.033,227.043 256,223.5C 275.602,211.947 295.768,201.28 316.5,191.5C 324.249,185.865 331.249,179.365 337.5,172C 347.549,165.291 356.716,157.457 365,148.5C 371.949,138.549 379.283,128.883 387,119.5C 400.852,106.501 415.352,94.334 430.5,83C 448.206,74.0807 465.206,64.0807 481.5,53C 490.405,47.9543 499.405,43.9543 508.5,41C 522.58,38.8209 536.247,39.4876 549.5,43C 567.162,51.1514 585.162,59.4848 603.5,68C 614.841,75.3431 623.341,85.1765 629,97.5C 630.145,100.432 630.978,103.432 631.5,106.5C 628.531,105.671 625.531,105.505 622.5,106C 630.363,114.378 639.863,118.878 651,119.5C 677.297,129.625 687.131,147.959 680.5,174.5C 674.679,169.757 668.679,165.257 662.5,161C 659.845,159.885 657.179,159.218 654.5,159C 659.64,163.805 664.807,168.639 670,173.5C 673.209,179.114 674.209,185.114 673,191.5C 669.259,202.423 665.426,212.923 661.5,223C 662.263,223.944 663.263,224.444 664.5,224.5C 678.318,221.081 692.152,220.748 706,223.5C 722.992,223.1 739.158,226.6 754.5,234C 759.058,242.033 758.392,249.366 752.5,256C 749.611,258.612 746.278,260.445 742.5,261.5C 735.464,257.972 728.798,253.806 722.5,249C 710.194,243.276 697.694,240.776 685,241.5C 680.006,240.854 675.172,239.521 670.5,237.5C 668.744,239.191 668.244,241.191 669,243.5C 675.164,247.492 681.33,250.659 687.5,253C 699.513,264.065 707.513,277.232 711.5,292.5C 711.019,297.665 709.853,302.665 708,307.5C 698.756,304.97 689.922,300.803 681.5,295C 674.25,286.459 667.917,277.292 662.5,267.5C 657.344,262.175 652.344,256.675 647.5,251C 650.261,246.796 653.261,242.796 656.5,239C 647.261,235.626 638.761,230.792 631,224.5C 630.305,229.359 629.805,234.026 629.5,238.5C 627.459,237.764 625.459,236.931 623.5,236C 621.079,229.068 619.579,221.902 619,214.5C 618.25,213.874 617.416,213.374 616.5,213C 612.27,211.956 608.103,210.789 604,209.5C 603.275,210.059 602.442,210.392 601.5,210.5C 592.949,209.876 584.449,209.21 576,208.5C 570.782,198.586 566.448,187.919 563,176.5C 562.333,169.833 562.333,163.167 563,156.5C 563.337,153.584 564.17,150.75 565.5,148C 565.065,145.602 565.731,143.269 567.5,141C 567,140.5 566.5,140 566,139.5C 562.288,143.548 558.288,147.215 554,150.5C 546.947,146.261 539.614,142.594 532,139.5C 531.833,139.833 531.667,140.167 531.5,140.5C 537.861,145.365 543.694,150.699 549,156.5C 556.363,166.094 558.363,176.761 555,188.5C 552.07,194.936 548.903,201.27 545.5,207.5C 542.894,208.652 540.227,208.818 537.5,208C 533.757,206.864 530.09,205.53 526.5,204C 525.387,200.03 523.887,195.863 522,191.5C 520.004,194.327 517.838,196.993 515.5,199.5C 506.746,188.756 498.413,177.756 490.5,166.5 Z M 486.5,166.5 C 487.833,166.5 489.167,166.5 490.5,166.5C 494.467,175.098 498.967,183.432 504,191.5C 513.972,202.904 526.472,209.737 541.5,212C 558.17,212.143 574.836,212.143 591.5,212C 599.372,212.174 607.039,213.508 614.5,216C 616.317,217.8 617.484,219.966 618,222.5C 618.499,227.489 618.666,232.489 618.5,237.5C 606.154,237.082 593.821,236.415 581.5,235.5C 551.457,240.865 524.457,234.365 500.5,216C 486.604,203.811 481.604,188.644 485.5,170.5C 486.434,169.432 486.768,168.099 486.5,166.5 Z M 417.5,489.5 C 414.013,491.745 410.346,493.745 406.5,495.5C 407.146,499.797 408.646,503.797 411,507.5C 412.388,508.554 413.888,508.72 415.5,508C 417.876,502.036 419.543,495.869 420.5,489.5C 419.5,489.5 418.5,489.5 417.5,489.5 Z"/></g>
<g><path style="opacity:1" fill="#121313" d="M 598.5,134.5 C 608.806,137.744 617.64,143.411 625,151.5C 626.602,153.369 627.602,155.369 628,157.5C 617.861,152.683 608.528,146.683 600,139.5C 598.991,137.975 598.491,136.308 598.5,134.5 Z"/></g>
<g><path style="opacity:1" fill="#0c0c0c" d="M 490.5,166.5 C 489.167,166.5 487.833,166.5 486.5,166.5C 487.511,162.777 488.845,162.777 490.5,166.5 Z"/></g>
<g><path style="opacity:1" fill="#0d0e0e" d="M 417.5,165.5 C 418.586,165.62 419.253,166.287 419.5,167.5C 418.435,171.862 417.268,176.195 416,180.5C 406.518,199.291 396.852,217.958 387,236.5C 378.827,238.497 370.327,240.497 361.5,242.5C 362.929,236.975 365.429,231.975 369,227.5C 387.293,212.952 401.293,194.952 411,173.5C 412.946,170.58 415.113,167.913 417.5,165.5 Z"/></g>
<g><path style="opacity:1" fill="#0e0e0e" d="M 623.5,165.5 C 631.657,172.484 637.49,181.151 641,191.5C 643.173,197.843 645.34,204.176 647.5,210.5C 647.167,212.167 646.167,213.167 644.5,213.5C 637.084,211.899 629.418,210.066 621.5,208C 620.572,207.612 619.905,206.945 619.5,206C 620.953,202.928 622.787,200.095 625,197.5C 626.573,194.523 627.406,191.357 627.5,188C 626.562,180.417 625.228,172.917 623.5,165.5 Z"/></g>
<g><path style="opacity:1" fill="#0e0e0e" d="M 215.5,270.5 C 216.376,270.369 217.043,270.702 217.5,271.5C 214.434,284.053 212.434,296.553 211.5,309C 210.11,315.391 206.276,319.558 200,321.5C 194.565,312.376 194.232,302.709 199,292.5C 203.779,284.6 209.279,277.267 215.5,270.5 Z"/></g>
<g><path style="opacity:1" fill="#191919" d="M 91.5,282.5 C 94.6741,282.952 95.0075,283.952 92.5,285.5C 91.6143,284.675 91.281,283.675 91.5,282.5 Z"/></g>
<g><path style="opacity:1" fill="#00b400" d="M 610.5,289.5 C 614.514,289.334 618.514,289.501 622.5,290C 638.392,297.592 652.892,307.092 666,318.5C 670.843,324.7 673.51,331.7 674,339.5C 668.3,343.634 662.133,344.801 655.5,343C 651.107,338.289 648.107,332.789 646.5,326.5C 643.218,321.327 639.718,316.327 636,311.5C 630.192,306.362 624.359,301.195 618.5,296C 616.5,296.333 614.5,296.667 612.5,297C 612.833,296.667 613.167,296.333 613.5,296C 611.549,294.266 610.549,292.099 610.5,289.5 Z"/></g>
<g><path style="opacity:1" fill="#00b500" d="M 730.5,289.5 C 731.117,289.611 731.617,289.944 732,290.5C 735.912,301.241 736.412,312.075 733.5,323C 732.195,329.362 728.362,334.196 722,337.5C 721.564,334.053 722.397,330.553 724.5,327C 724.167,326.667 723.833,326.333 723.5,326C 726.127,320.785 727.961,315.285 729,309.5C 729.243,302.785 729.743,296.119 730.5,289.5 Z"/></g>
<g><path style="opacity:1" fill="#101111" d="M 588.5,306.5 C 590.225,311.955 591.725,317.622 593,323.5C 597.004,330.176 601.004,336.843 605,343.5C 606.639,346.742 607.639,350.076 608,353.5C 599.001,345.824 591.668,336.824 586,326.5C 584.424,319.543 585.257,312.876 588.5,306.5 Z"/></g>
<g><path style="opacity:1" fill="#00b200" d="M 549.5,312.5 C 558.376,314.872 563.542,320.539 565,329.5C 557.872,325.542 552.705,319.876 549.5,312.5 Z"/></g>
<g><path style="opacity:1" fill="#01b403" d="M 541.5,315.5 C 544.265,315.798 546.765,316.798 549,318.5C 558.668,332.52 557.335,333.853 545,322.5C 543.121,320.473 541.954,318.14 541.5,315.5 Z"/></g>
<g><path style="opacity:1" fill="#009f02" d="M 535.5,318.5 C 536.708,319.234 538.041,319.567 539.5,319.5C 539.421,320.93 539.754,322.264 540.5,323.5C 540.192,324.308 539.692,324.975 539,325.5C 536.978,323.607 535.812,321.273 535.5,318.5 Z"/></g>
<g><path style="opacity:1" fill="#00b401" d="M 711.5,414.5 C 721.433,423.757 720.767,432.257 709.5,440C 706.794,441.908 703.794,442.741 700.5,442.5C 702.212,432.358 705.879,423.024 711.5,414.5 Z"/></g>
<g><path style="opacity:1" fill="#02b206" d="M 680.5,472.5 C 685.362,472.038 689.696,473.204 693.5,476C 687.873,477.625 682.206,477.792 676.5,476.5C 678.188,475.479 679.521,474.145 680.5,472.5 Z"/></g>
<g><path style="opacity:1" fill="#00b000" d="M 210.5,672.5 C 211.958,672.579 213.292,673.079 214.5,674C 212.016,678.149 208.849,681.649 205,684.5C 204.493,683.004 204.993,681.837 206.5,681C 206.167,680.667 205.833,680.333 205.5,680C 206.804,677.215 208.471,674.715 210.5,672.5 Z"/></g>
</svg>
